<svg id="Coffee" xmlns="http://www.w3.org/2000/svg" viewBox="0 0 1920 1920"><defs><style>.cls-1{fill:#fff;}.cls-2{fill:#f4f2e4;}.cls-3{fill:#331001;}.cls-4{fill:#140500;}</style></defs><path class="cls-1" d="M1469.64,738.91c-28-67.27-104.61-192.08-175-210.92-51.23-13.71-206.28,60.56-206.28,60.56l20.5,53.25c37.58-16.49,114.84-47.6,145.65-39.35,56.93,15.24,118.94,116.2,141.55,170.62,27.08,65.17,52.54,188.75,29.08,268.56-6.69,22.75-94.54,53.35-136.69,66.83l20.6,53.55s185.6-54,196.51-91.11C1534.58,972.24,1503.11,819.47,1469.64,738.91Z"/><path class="cls-2" d="M1300.08,599.15c-10.72-2.48-37.83-2.4-56,1.78.85.24,1.7.49,2.56.77a41.07,41.07,0,0,1,7.67,1.21c49.57,13.27,103,91.52,130.89,147.46,4.35,8.16,8,15.82,10.88,22.7,27.08,65.17,52.54,188.75,29.08,268.56a13.44,13.44,0,0,1-1,2.34c-10.6,22.3-93.28,51.25-134.72,64.55l9.85,25.6S1466,1084.54,1476.52,1053c28-83.93,3.19-212.23-24.93-279.52C1428.1,717.27,1362.43,613.54,1300.08,599.15Z"/><path class="cls-1" d="M707.9,528c-205.95,79.26-349.22,205-320,281l261,678.32c29.21,75.91,219.85,73.2,425.81-6.06s349.22-205,320-281l-261-678.32C1104.5,446,913.86,448.7,707.9,528Z"/><ellipse class="cls-2" cx="761.85" cy="666.94" rx="358.18" ry="116.79" transform="translate(-188.7 318.12) rotate(-21.05)"/><path class="cls-3" d="M320.16,766.48c1.28,5.66,10.83,7.28,19.18,5.39s12.67-10.41,11.28-13.8-12.6-8.79-20.95-6.9S318.87,760.83,320.16,766.48Z"/><path class="cls-3" d="M355.69,643.19c3.91,10.56-11,34.74-35.84,42.86s-49.16,2.1-54.23-13.46,2.74-31.36,27.61-39.48S352.53,634.66,355.69,643.19Z"/><path class="cls-3" d="M249,716.22c2.61,5.18-4.61,16.43-16.88,22s-24.06,5.91-27.55-1.76,2.59-14.22,14.86-19.82S246.87,712,249,716.22Z"/><path class="cls-3" d="M803.78,775.94c127-48.85,228.5-114.42,272-170.19C1035,583.83,933.37,585.53,888,595c-39.41,8.23-99.28,65.41-139,72-57.92,9.61-171-28.87-225-52-28-12-46-12-59-11-11,.84-34.6,3.35-51,13-17,10-39,49-21,74,10.77,15,16,24.42,28,33,7,5,6,14-11,11-14.58-2.57-33.52,8.6-35,18s14.16,6.42,27,10c12.19,3.4,21.54,13,23.95,27.29h0a39.41,39.41,0,0,0,1.6,5.3C450.73,855.79,619.17,847,803.78,775.94Z"/><path class="cls-4" d="M888.9,594.81c-39.41,8.24-106.54,67.24-139,72-38.13,5.63-100-8-154.63-25.37,4.33,4.59,25.06,47.85,63.37,63.58,27.73,11.38,71.71,9.89,100.77,2.58,18.2-4.58,37.75-30.42,56.45-37.14,36.25-13,60.08,8.42,92.8-1.65,26.28-8.08,43.71-35.3,67.71-44.91,29.51-11.82,64.53-5,84.32-.8,5.57-5.83,11-12.09,15.41-17.74C1035.24,583.47,934.27,585.34,888.9,594.81Z"/><path class="cls-4" d="M571.06,833.66s-84-42.31-104.45-61c-13.5-12.38,2.74-42.75-21.57-52.8-28.11-11.63-48.46-31.82-58.73-52.3C386,675.83,387.94,684,393,691c10.78,15,16,24.42,28,33,3.37,2.4,4.88,5.73,3.66,8.2a10.46,10.46,0,0,1,2.4,6.45c0,9-13.21,16.32-29.5,16.32-8.46,0-16.07-2-21.45-5.12A10.44,10.44,0,0,0,375,753c-1.46,9.25,14.16,6.42,27,10,12.2,3.4,21.54,13,24,27.29h0a39.45,39.45,0,0,0,1.61,5.3c12.48,32.45,66.82,44.87,143.52,38.28Z"/><path class="cls-4" d="M336.18,670.92c-28.11,9.18-56.43-.33-63.26-21.24-.48-1.48-.88-3-1.21-4.43-7.47,7.89-9.2,17.48-6.09,27,5.07,15.56,29.35,21.58,54.23,13.46A59.94,59.94,0,0,0,348.71,665,54.73,54.73,0,0,1,336.18,670.92Z"/><path class="cls-4" d="M236.34,732c-12.79,5.83-25.7,5.38-32-3.47a9.3,9.3,0,0,0,.17,7.91c3.49,7.67,15.28,7.36,27.55,1.76,8.57-3.91,14.68-10.57,16.69-16A33.79,33.79,0,0,1,236.34,732Z"/><path class="cls-4" d="M343.15,765.63c-8.4,1.9-17.61,1.41-23.3-1.7a12.44,12.44,0,0,0,.31,2.55c1.28,5.66,10.83,7.28,19.18,5.39a15.68,15.68,0,0,0,10.83-9.17A22.63,22.63,0,0,1,343.15,765.63Z"/><path class="cls-2" d="M695.24,850.66c-206.17,56-287.31,5.7-309.86-52.87a56,56,0,0,0,3,11.24l261,678.31c23.28,60.49,149.06,71.06,303.42,32.75Z"/></svg>