<svg xmlns="http://www.w3.org/2000/svg" viewBox="0 0 1920 1920"><defs><style>.cls-1{fill:#f9ff00;}.cls-2{fill:#f90;}.cls-3{fill:#e5df03;}.cls-4{fill:#ef8800;}.cls-5{fill:#fff;}</style></defs><g id="Duck_back" data-name="Duck back"><path class="cls-1" d="M1549.84,1065.84s15.93-93,17.65-125.9c3.07-58.82-2.75-89.5-21.61-118.85-9.05-14.08-34.62-52.93-102.16-40.42-48.36,9-78.51,24.52-98,19.37-14.54-3.82-50.28,15.15-50.28,15.15Z"/><path class="cls-1" d="M1108.33,776.5v706.41c272-61.63,458.11-303.68,444.63-482.3C1540.37,833.68,1357.45,775.72,1108.33,776.5Z"/></g><g id="Duck_front" data-name="Duck front"><path class="cls-1" d="M1283.2,787.79c-90.6-14-198.6-14.48-315.52-5.66-318.29,24-526.32,207.93-511.45,405s247,332.63,565.29,308.62c97.06-7.33,185.73-37.92,261.68-82.5Z"/><circle class="cls-1" cx="768.3" cy="729.79" r="313.46"/><ellipse class="cls-2" cx="555.33" cy="824.07" rx="80.75" ry="169.63" transform="translate(-340.75 1253.63) rotate(-81.64)"/><circle cx="767.97" cy="708.89" r="41.57"/><path class="cls-1" d="M1439.55,1045c26,75.45-85.59,289.08-240.82,319.61S922,1345.89,904.11,1254.7s75.6-197.33,230.84-227.85S1421.58,992.85,1439.55,1045Z"/><path class="cls-3" d="M1138.58,1431.93c-316.51,23.88-566-55.51-672.78-190.8,49.22,167.48,267,276.89,555.55,255.12,102.4-7.73,195.46-41.36,274.1-90A915.46,915.46,0,0,1,1138.58,1431.93Z"/><path class="cls-4" d="M549.34,868.1c-68.28-10-127-31.69-161.79-56.9,6.08,40.38,71.58,80.35,156,92.76,84,12.36,158-6.81,175.87-43.38C678.82,874.36,617,878,549.34,868.1Z"/><path class="cls-3" d="M701.54,1036.78A311.92,311.92,0,0,1,550,954.41,377.09,377.09,0,0,0,505.88,1009a312,312,0,0,0,154.56,85.34c138.78,30.92,276.54-35.38,342.21-153.67C929.43,1021.77,815.83,1062.25,701.54,1036.78Z"/><path class="cls-3" d="M1209.74,1301.13c-155.23,30.52-276.69-18.75-294.62-109.94a115,115,0,0,1-1.73-12.25c-10.6,25.18-14,51.08-9.1,75.86,17.93,91.19,139.39,140.46,294.62,109.94,142.43-28,248.1-210.15,244.49-298.29C1413.17,1158.91,1323.1,1278.84,1209.74,1301.13Z"/><circle class="cls-5" cx="784.91" cy="695.59" r="9.46"/><ellipse cx="475.13" cy="669.47" rx="41.57" ry="30.5" transform="matrix(0.29, -0.96, 0.96, 0.29, -302.27, 933.24)"/><ellipse class="cls-5" cx="492.57" cy="659.49" rx="9.46" ry="6.93" transform="translate(-254.06 1006.06) rotate(-78.14)"/></g></svg>