<svg xmlns="http://www.w3.org/2000/svg" xmlns:xlink="http://www.w3.org/1999/xlink" viewBox="0 0 1920 1920"><defs><style>.cls-1{fill:none;}.cls-2{fill:#606060;}.cls-3{fill:#aaa;}.cls-4{fill:#999;}.cls-5{fill:#41ce52;}.cls-6{fill:#3cb548;}.cls-7{fill:#b6b7b6;}.cls-8{clip-path:url(#clip-path);}.cls-9{fill:#64e871;}.cls-10{clip-path:url(#clip-path-2);}.cls-11{clip-path:url(#clip-path-3);}.cls-12{fill:#2fa33a;}</style><clipPath id="clip-path"><ellipse class="cls-1" cx="886.96" cy="1077.4" rx="70.03" ry="89.92"/></clipPath><clipPath id="clip-path-2"><polygon class="cls-1" points="1313.07 1125.65 981.01 1279.82 981.01 1191.42 1313.07 1037.26 1313.07 1125.65"/></clipPath><clipPath id="clip-path-3"><ellipse class="cls-1" cx="1383.99" cy="846.77" rx="70.03" ry="89.92"/></clipPath></defs><g id="Robot_back" data-name="Robot back"><path class="cls-2" d="M812,1789.28c-28.63,0-52.61-22.79-71.27-67.76-13.52-32.56-24.79-77.66-33.51-134-14.69-95-17.22-191.36-17.24-192.32l28-.69c0,1,2.52,95.71,17,189,8.38,54.12,19,97,31.7,127.46,9.57,23,25.2,50.41,45.41,50.41h.17c36.84-.28,68.33-74.88,86.4-204.68,14.76-106.1,16-213.7,16-214.77l28,.26c0,1.09-1.2,110.27-16.2,218.14-8.89,63.94-20.85,115.14-35.56,152.15-20.18,50.79-46.55,76.66-78.39,76.9Z"/><path class="cls-2" d="M1051.22,1588.07h-.65c-63.14-.21-117.46-24.64-161.46-72.61-34.38-37.47-62.35-89.32-83.14-154.1-35-108.9-37.67-215.81-37.77-220.31l28-.61c0,1.06,2.78,107.81,36.6,212.88,44.06,136.86,117.36,206.41,217.87,206.75h.56c87.5,0,153.63-68.26,196.59-202.91,33.13-103.86,38.88-209.55,38.94-210.6l28,1.42c-.23,4.44-5.93,109.93-40.07,217.22-20.31,63.79-46.54,114.8-78,151.59C1156.26,1564.09,1107.33,1588.07,1051.22,1588.07Z"/><path class="cls-2" d="M1255.1,1420.68c-36.69,0-68.62-16-94.89-47.42-20.06-24-36.76-57.2-49.64-98.61-21.5-69.15-25.1-137.18-25.24-140l28-1.4h0c.14,2.84,14.61,259.46,141.82,259.46h.36c146.21-.56,153.64-294,153.7-296.92l28,.53c-.06,3.24-1.76,80.2-23.68,158.6-13.11,46.87-30.8,84.46-52.6,111.73-28.54,35.71-64,53.9-105.31,54.06Z"/><path class="cls-2" d="M896.81,1156.33c-4.43-.23-109.93-5.93-217.21-40.08-63.79-20.3-114.8-46.53-151.59-78-47.49-40.56-71.47-89.71-71.28-146.1.21-63.13,24.64-117.45,72.6-161.45,37.48-34.38,89.33-62.35,154.1-83.15,108.91-35,215.82-37.66,220.32-37.76l.61,28c-1.06,0-107.82,2.78-212.88,36.6C554.62,718.47,485.06,791.77,484.73,892.28c-.29,87.77,68,154.1,202.9,197.15,103.87,33.13,209.56,38.88,210.61,38.93Z"/><path class="cls-2" d="M936.75,986.48c-1-.45-99.35-45.87-189-108.07-53.29-36.94-93.34-72.64-119-106.1-34.33-44.68-43.75-86.12-28-123.19C618.1,608,656,582.62,713.23,573.74c43.28-6.72,98-4,162.79,8.12,108.9,20.38,207.63,59.75,211.78,61.42l-10.43,26c-1-.4-100.62-40.11-206.85-59.94-94.08-17.56-212.8-23-244.11,50.74-27.13,63.92,59.52,141.41,137,195.16,87.68,60.85,184.08,105.38,185,105.82Z"/></g><g id="Robot_front" data-name="Robot front"><polygon class="cls-3" points="901.1 541.67 533.82 712.87 535.58 951.77 1138.97 937.08 1138.97 617.43 901.1 541.67"/><polygon class="cls-4" points="532.08 712.65 535.58 904.77 678.25 1150.41 715.43 797.2 532.08 712.65"/><path class="cls-5" d="M985.65,1453a4.55,4.55,0,0,1-4.47,2.56,5.59,5.59,0,0,1-4.46-2.56v-85.3h8.93Z"/><path class="cls-6" d="M998.86,1458.47a4.55,4.55,0,0,1-4.47,2.56,5.59,5.59,0,0,1-4.46-2.56v-85.3h8.93Z"/><path class="cls-5" d="M1035,1502.4a4.56,4.56,0,0,1-4.47,2.55,5.6,5.6,0,0,1-4.47-2.55v-85.3H1035Z"/><path class="cls-6" d="M1048.62,1499.28a4.54,4.54,0,0,1-4.46,2.56,5.6,5.6,0,0,1-4.47-2.56V1414h8.93Z"/><path class="cls-2" d="M1001.65,1438.06a23.43,23.43,0,0,1-14,5c-10,0-14-5-14-5V1170.78h28Z"/><path class="cls-2" d="M1051,1486.48s-3,8-14,8c-9.17,0-14-8-14-8V1219.19h28Z"/><polygon class="cls-7" points="1180.06 464.69 454.46 802.28 509.84 1293.02 1500.77 1118.92 1500.77 613.59 1180.06 464.69"/><polygon class="cls-3" points="1498.02 1119.29 772.41 1456.18 772.41 950.85 1498.02 613.96 1498.02 1119.29"/><polygon class="cls-4" points="451.7 801.95 451.7 1307.28 772.41 1456.18 772.41 950.85 451.7 801.95"/><ellipse class="cls-5" cx="886.96" cy="1077.4" rx="70.03" ry="89.92"/><g class="cls-8"><path class="cls-9" d="M781.79,1243.36l-3.67-12.47c39.89-11.77,64.77-63.66,55.46-115.68-5.15-28.76-19.84-52.52-40.32-65.17-14.88-9.19-31.23-11.55-47.28-6.81l-3.68-12.47c19.42-5.73,39.94-2.81,57.79,8.22,23.62,14.59,40.49,41.54,46.29,73.94,5,28.08,1.21,57-10.72,81.49C823.51,1219.31,804.38,1236.69,781.79,1243.36Z"/><path class="cls-9" d="M810.16,1231l-3.68-12.47c39.89-11.77,64.77-63.66,55.46-115.68-5.14-28.77-19.84-52.52-40.32-65.17-14.87-9.19-31.22-11.55-47.27-6.81l-3.68-12.47c19.41-5.73,39.93-2.81,57.78,8.22,23.62,14.59,40.49,41.54,46.29,73.94,5,28.08,1.22,57-10.72,81.49C851.87,1206.92,832.75,1224.3,810.16,1231Z"/><path class="cls-9" d="M838.52,1218.57l-3.68-12.47c39.89-11.76,64.78-63.66,55.47-115.67-5.15-28.77-19.85-52.52-40.33-65.17-14.87-9.2-31.22-11.55-47.27-6.81L799,1006c19.42-5.73,39.94-2.81,57.79,8.22,23.62,14.59,40.49,41.54,46.28,73.94,5,28.07,1.22,57-10.72,81.48C880.24,1194.52,861.11,1211.91,838.52,1218.57Z"/><path class="cls-9" d="M866.89,1206.18l-3.68-12.47c39.89-11.77,64.77-63.66,55.46-115.67-5.15-28.77-19.84-52.53-40.32-65.18-14.88-9.19-31.22-11.54-47.28-6.81l-3.68-12.47c19.42-5.72,39.94-2.8,57.79,8.22,23.62,14.6,40.49,41.55,46.29,74,5,28.07,1.21,57-10.72,81.48C908.6,1182.13,889.47,1199.52,866.89,1206.18Z"/><path class="cls-9" d="M895.25,1193.79l-3.68-12.47c39.89-11.77,64.77-63.66,55.46-115.68-5.14-28.76-19.84-52.52-40.32-65.17-14.87-9.19-31.22-11.55-47.27-6.81l-3.68-12.47c19.41-5.73,39.94-2.81,57.78,8.22C937.16,1004,954,1031,959.83,1063.35c5,28.08,1.22,57-10.72,81.49C937,1169.74,917.84,1187.12,895.25,1193.79Z"/><path class="cls-9" d="M923.61,1181.4l-3.68-12.47c39.9-11.77,64.78-63.66,55.47-115.68-5.15-28.77-19.85-52.52-40.32-65.17-14.88-9.19-31.23-11.55-47.28-6.81l-3.68-12.47c19.42-5.73,39.94-2.81,57.79,8.22,23.62,14.59,40.49,41.54,46.29,73.94,5,28.08,1.21,57-10.72,81.49C965.33,1157.35,946.2,1174.73,923.61,1181.4Z"/><path class="cls-9" d="M952,1169l-3.68-12.46c39.89-11.77,64.77-63.67,55.46-115.68-5.15-28.77-19.84-52.52-40.32-65.17-14.88-9.19-31.22-11.55-47.28-6.81l-3.67-12.47c19.41-5.73,39.93-2.81,57.78,8.22,23.62,14.59,40.49,41.54,46.29,73.94,5,28.07,1.22,57-10.72,81.48C993.69,1145,974.56,1162.34,952,1169Z"/><path class="cls-9" d="M980.34,1156.61l-3.68-12.47c39.89-11.77,64.77-63.66,55.47-115.67C1027,999.7,1012.28,976,991.8,963.29c-14.87-9.19-31.22-11.54-47.27-6.81L940.85,944c19.42-5.73,39.94-2.81,57.79,8.21,23.61,14.6,40.49,41.55,46.28,74,5,28.07,1.22,57-10.72,81.48C1022.06,1132.56,1002.93,1150,980.34,1156.61Z"/></g><path class="cls-4" d="M956.34,1064.77l17,7.91c-6.28-62.25-44.29-88.48-77.57-84.57C923.35,992.1,950.77,1020,956.34,1064.77Z"/><path class="cls-7" d="M838.31,1114.23a113,113,0,0,1-4.49-57.3c6.76-37.78,48.14-64.39,78.15-68.3-52.91-11.21-86.32,24.26-94.26,68.63-3,16.77-1.13,33.53,2.85,48.73Z"/><polygon class="cls-5" points="1313.07 1125.65 981.01 1279.82 981.01 1191.42 1313.07 1037.26 1313.07 1125.65"/><g class="cls-10"><polygon class="cls-9" points="1003.24 1240.61 992.13 1230.82 979.85 1236.52 976.48 1229.26 993.5 1221.36 1000.08 1227.16 1005.93 1212.84 1017.02 1221.34 1021.59 1208.32 1064.29 1188.49 1072.43 1169.89 1085.76 1181.24 1093.46 1188.28 1097.82 1166.09 1107.93 1171.05 1114.48 1159.01 1123.04 1161.22 1156.88 1145.5 1159.71 1130.08 1171.5 1144.7 1177.19 1107.61 1192.31 1129.05 1227.57 1112.68 1234.6 1088.61 1251.08 1109.61 1261.44 1082.76 1269.65 1093.14 1308.53 1075.09 1311.9 1082.35 1267.3 1103.06 1263.86 1098.71 1253.47 1125.63 1237.91 1105.79 1234.23 1118.41 1189.62 1139.12 1182.09 1128.44 1176.66 1163.83 1164.43 1148.67 1164 1151.02 1123.81 1169.68 1118.52 1168.31 1111.29 1181.6 1103.66 1177.86 1098.56 1203.78 1080.41 1187.19 1075.44 1182.96 1070.41 1194.47 1028.02 1214.15 1020.91 1234.4 1009.38 1225.56 1003.24 1240.61"/></g><polygon class="cls-4" points="1291.42 1047.3 1291.42 1135.7 1313.07 1125.65 1313.07 1037.26 1291.42 1047.3"/><polygon class="cls-7" points="1291.42 1115.56 981.01 1259.68 981.01 1279.62 1313.07 1125.45 1291.42 1115.56"/><ellipse class="cls-5" cx="1383.99" cy="846.77" rx="70.03" ry="89.92"/><g class="cls-11"><path class="cls-9" d="M1278.82,1012.73l-3.68-12.47c39.89-11.77,64.78-63.66,55.47-115.67-5.15-28.77-19.85-52.53-40.33-65.18-14.87-9.19-31.22-11.54-47.27-6.81l-3.68-12.46c19.41-5.73,39.94-2.81,57.79,8.21,23.61,14.6,40.49,41.55,46.28,73.95,5,28.07,1.22,57-10.72,81.48C1320.54,988.68,1301.41,1006.07,1278.82,1012.73Z"/><path class="cls-9" d="M1307.18,1000.34l-3.67-12.47c39.89-11.77,64.77-63.66,55.46-115.67-5.15-28.77-19.84-52.53-40.32-65.18-14.88-9.19-31.23-11.54-47.28-6.81l-3.68-12.47c19.42-5.72,39.94-2.81,57.79,8.22,23.62,14.59,40.49,41.54,46.29,73.95,5,28.07,1.21,57-10.72,81.48C1348.9,976.29,1329.77,993.68,1307.18,1000.34Z"/><path class="cls-9" d="M1335.55,988l-3.68-12.47c39.89-11.77,64.77-63.66,55.46-115.68-5.14-28.76-19.84-52.52-40.32-65.17-14.87-9.19-31.22-11.55-47.27-6.81l-3.68-12.47c19.41-5.73,39.93-2.81,57.78,8.22,23.62,14.59,40.49,41.54,46.29,73.94,5,28.08,1.22,57-10.72,81.49C1377.26,963.9,1358.14,981.28,1335.55,988Z"/><path class="cls-9" d="M1363.91,975.56l-3.68-12.47c39.89-11.77,64.78-63.66,55.47-115.68-5.15-28.77-19.85-52.52-40.33-65.17-14.87-9.19-31.22-11.55-47.27-6.81L1324.42,763c19.41-5.73,39.94-2.81,57.79,8.22,23.62,14.59,40.49,41.54,46.29,73.94,5,28.08,1.21,57-10.73,81.49C1405.63,951.51,1386.5,968.89,1363.91,975.56Z"/><path class="cls-9" d="M1392.28,963.16l-3.68-12.47c39.89-11.77,64.77-63.66,55.46-115.67-5.15-28.77-19.84-52.52-40.32-65.18-14.88-9.19-31.23-11.54-47.28-6.8l-3.67-12.47c19.41-5.73,39.93-2.81,57.78,8.21,23.62,14.6,40.49,41.55,46.29,74,5,28.07,1.21,57-10.72,81.48C1434,939.11,1414.86,956.5,1392.28,963.16Z"/><path class="cls-9" d="M1420.64,950.77,1417,938.3c39.89-11.77,64.77-63.66,55.47-115.67-5.15-28.77-19.85-52.53-40.33-65.18-14.87-9.19-31.22-11.54-47.27-6.81l-3.68-12.47c19.41-5.72,39.93-2.81,57.78,8.22,23.62,14.59,40.49,41.55,46.29,74,5,28.07,1.22,57-10.72,81.48C1462.36,926.72,1443.23,944.11,1420.64,950.77Z"/><path class="cls-9" d="M1449,938.38l-3.68-12.47c39.9-11.77,64.78-63.66,55.47-115.68-5.15-28.76-19.85-52.52-40.32-65.17-14.88-9.19-31.23-11.54-47.28-6.81l-3.68-12.47c19.41-5.73,39.94-2.81,57.79,8.22,23.62,14.59,40.49,41.54,46.29,73.94,5,28.08,1.21,57-10.72,81.49C1490.72,914.33,1471.59,931.71,1449,938.38Z"/><path class="cls-9" d="M1477.37,926l-3.68-12.47c39.89-11.77,64.77-63.66,55.46-115.68-5.14-28.77-19.84-52.52-40.32-65.17-14.88-9.19-31.22-11.55-47.28-6.81l-3.67-12.47c19.41-5.73,39.93-2.81,57.78,8.22,23.62,14.59,40.49,41.54,46.29,73.94,5,28.08,1.22,57-10.72,81.49C1519.08,901.94,1500,919.32,1477.37,926Z"/></g><path class="cls-4" d="M1453.36,834.14l17.06,7.92c-6.28-62.26-44.3-88.48-77.57-84.58C1420.38,761.47,1447.79,789.38,1453.36,834.14Z"/><path class="cls-7" d="M1335.34,883.6a113,113,0,0,1-4.49-57.3c6.76-37.78,48.13-64.38,78.15-68.3-52.91-11.21-86.32,24.26-94.26,68.63-3,16.78-1.13,33.53,2.85,48.73Z"/><polygon class="cls-3" points="1137.99 588.47 1102.51 572 803.68 711.03 839.13 727.52 1137.99 588.47"/><polygon class="cls-2" points="838.89 727.53 1126.32 593.8 1102.51 582.75 815.1 716.47 838.89 727.53"/><polygon class="cls-4" points="1102.64 582.75 1126.43 593.79 1137.87 588.47 1102.38 572 1102.64 582.75"/><path class="cls-9" d="M1081.43,336.53l-52.3,24-.83,3.38-133.2,61-3.38-1.69-46.8,21.68c-8.33,3.59-12.74,6.79-12.74,13.79l-.12,265.7,6.83,3.17,23.93-11.14,244.26-119.16-3-246.92s-8-6.95-13.06-11.47C1086.83,335.1,1083.22,336,1081.43,336.53Z"/><path class="cls-6" d="M832.14,458.7,832,724.4l6.66,3.1,23.87-11.11L859,466.28l-24.66-14.59A10.88,10.88,0,0,0,832.14,458.7Z"/><path class="cls-5" d="M1107.15,603.63V359.8c0-6.6-4.88-15.57-12-12l-51.68,23.53-.76,3.51L910.65,435.38,907,433.82l-47.19,21.45s-8.42,3.09-10.81,8.38a10.92,10.92,0,0,0-1,5V723.3Z"/><path class="cls-3" d="M1042.71,464.05V374.84l-14.41-11L895.9,424.51,911.49,435V527.3a2.7,2.7,0,0,0,4,2.27L1040,470.92C1043.27,469.3,1042.71,466.28,1042.71,464.05Z"/><polygon class="cls-5" points="952.23 433.71 952.23 428.42 947.37 430.7 947.37 436 935.93 441.38 935.93 500.32 964.83 486.72 964.83 427.78 952.23 433.71"/><polygon class="cls-7" points="1042.71 374.84 1028.3 363.87 895.9 424.51 911.49 434.99 1042.71 374.84"/><ellipse class="cls-4" cx="990.6" cy="582.42" rx="55.32" ry="42.05" transform="translate(333.54 1525.16) rotate(-85.58)"/><ellipse class="cls-3" cx="992.97" cy="581.81" rx="54.29" ry="41.26" transform="translate(336.34 1526.96) rotate(-85.58)"/><rect class="cls-5" x="988.11" y="576.95" width="9.72" height="9.72" transform="translate(187.67 -240.37) rotate(15.23)"/><rect class="cls-5" x="983.43" y="592.16" width="13.57" height="26.73" transform="translate(1468.58 -452) rotate(82.89)"/><polygon class="cls-4" points="997.85 578.1 995.69 586.03 987.4 583.77 987 585.22 996.38 587.77 998.94 578.39 997.85 578.1"/><rect class="cls-4" x="977.55" y="610.1" width="26.73" height="2.17" transform="translate(-68 127.29) rotate(-7.11)"/><ellipse class="cls-3" cx="596.68" cy="1089.44" rx="57.37" ry="102.03"/><ellipse class="cls-4" cx="580.87" cy="1086.38" rx="50.89" ry="90.49"/><path class="cls-7" d="M589.44,1093.61c-13.86,62.51-72.82,100.79-109.61,92.63S493.25,951.69,530,959.85,603.31,1031.09,589.44,1093.61Z"/><path class="cls-4" d="M571.76,1132.68c-37.83,12.86-76.67,5.74-103.48-10.15-3.29,34.43-.67,61.33,11.55,64,28.52,6.37,70.36-15.34,94.19-54.7Z"/><ellipse class="cls-3" cx="501.63" cy="1071.77" rx="115.94" ry="46.53" transform="translate(-653.34 1329.4) rotate(-77.49)"/><path class="cls-4" d="M535.56,1001.07a39,39,0,0,1,17.32,9c-2.44-28.33-11.6-48.23-26.14-51.46-25.09-5.56-56.67,40.6-70.54,103.12-1.43,6.44-2.61,12.8-3.56,19C469.63,1028.78,504.44,994.17,535.56,1001.07Z"/><path class="cls-6" d="M474.24,1112.33a15.09,15.09,0,0,0,10.39-1.42,11.79,11.79,0,0,1-3.5-.32c-10.81-2.7-15.69-20.47-10.89-39.7s17.45-32.62,28.26-29.93a12.94,12.94,0,0,1,6.78,4.45c-2.45-6.07-6.37-10.31-11.46-11.58-12.19-3-26.45,12.07-31.86,33.74S462.05,1109.28,474.24,1112.33Z"/><path class="cls-6" d="M444.66,1093.8a10.48,10.48,0,0,0,7.19-1,8.26,8.26,0,0,1-2.42-.23c-7.48-1.86-10.85-14.16-7.53-27.46s12.07-22.57,19.55-20.7a8.91,8.91,0,0,1,4.69,3.07c-1.7-4.2-4.41-7.13-7.93-8-8.43-2.1-18.3,8.35-22,23.34S436.23,1091.69,444.66,1093.8Z"/><path class="cls-6" d="M423.89,1075.46a6.65,6.65,0,0,0,4.62-.63,5.1,5.1,0,0,1-1.56-.14c-4.8-1.2-7-9.09-4.83-17.63s7.75-14.48,12.55-13.29a5.69,5.69,0,0,1,3,2c-1.09-2.7-2.83-4.58-5.09-5.14-5.41-1.35-11.75,5.35-14.15,15S418.48,1074.11,423.89,1075.46Z"/><path class="cls-7" d="M526.5,1062l-121-18.12-3.82,13.37L513,1106.47s13.85-4.5,18-18.86C535.61,1071.62,526.5,1062,526.5,1062Z"/><circle class="cls-9" cx="401.42" cy="1049.93" r="14.83"/><path class="cls-5" d="M494.43,1033.83a15,15,0,0,0-10.39,1.42,11.47,11.47,0,0,1,3.5.32c10.81,2.7,15.68,20.47,10.89,39.7s-17.45,32.62-28.27,29.92a12.83,12.83,0,0,1-6.77-4.45c2.44,6.08,6.37,10.32,11.46,11.59,12.18,3,26.45-12.07,31.86-33.74S506.62,1036.87,494.43,1033.83Z"/><path class="cls-5" d="M458.63,1039.49a10.43,10.43,0,0,0-7.19,1,8.19,8.19,0,0,1,2.42.22c7.48,1.87,10.86,14.17,7.54,27.47s-12.08,22.57-19.56,20.7a9,9,0,0,1-4.69-3.08c1.7,4.21,4.41,7.14,7.93,8,8.44,2.11,18.31-8.34,22.05-23.34S467.07,1041.59,458.63,1039.49Z"/><path class="cls-5" d="M432.86,1040.61a6.71,6.71,0,0,0-4.62.62,5.44,5.44,0,0,1,1.56.15c4.8,1.2,7,9.09,4.83,17.63s-7.74,14.48-12.55,13.28a5.75,5.75,0,0,1-3-2c1.09,2.7,2.83,4.58,5.09,5.14,5.42,1.35,11.75-5.35,14.15-15S438.27,1042,432.86,1040.61Z"/><path class="cls-5" d="M403.45,1058.69a14.83,14.83,0,0,1-14.83-14.83c0-.51,0-1,.08-1.52a14.83,14.83,0,1,0,27.48,9.11A14.82,14.82,0,0,1,403.45,1058.69Z"/><polygon class="cls-4" points="1131.81 902.42 1200.66 1021.91 1112.94 1051.37 1131.81 902.42"/><ellipse class="cls-4" cx="1323.44" cy="604.64" rx="63.3" ry="35.6"/><ellipse class="cls-7" cx="1325.34" cy="594.83" rx="56.15" ry="31.57"/><ellipse class="cls-4" cx="1323.28" cy="591.42" rx="41.38" ry="23.27"/><ellipse class="cls-7" cx="1325.22" cy="584.66" rx="36.71" ry="20.64"/><path class="cls-4" d="M1330.47,450.26h-9.06l-5,134.4c0,2.8,4,5.08,9,5.08s9-2.28,9-5.08Z"/><ellipse class="cls-5" cx="1319.96" cy="436.25" rx="9.96" ry="18.5" transform="translate(-41.28 718.43) rotate(-30)"/><path class="cls-12" d="M1331.07,445.19c-4.76,2.75-12.76-2.19-17.87-11a28.19,28.19,0,0,1-4-12.62c-3.1,3.75-2.34,11.94,2.14,19.7,5.11,8.85,13.11,13.79,17.87,11,2.42-1.4,3.53-4.5,3.38-8.38A5.56,5.56,0,0,1,1331.07,445.19Z"/><ellipse class="cls-4" cx="755.79" cy="865.91" rx="63.3" ry="35.6"/><ellipse class="cls-7" cx="757.69" cy="856.1" rx="56.15" ry="31.57"/><ellipse class="cls-4" cx="755.64" cy="852.68" rx="41.38" ry="23.27"/><ellipse class="cls-7" cx="757.57" cy="845.92" rx="36.71" ry="20.64"/><path class="cls-4" d="M762.82,711.52h-9.06l-5,134.4c0,2.81,4,5.08,9,5.08s9-2.27,9-5.08Z"/><ellipse class="cls-5" cx="752.32" cy="697.52" rx="9.96" ry="18.5" transform="matrix(0.87, -0.5, 0.5, 0.87, -247.97, 469.61)"/><path class="cls-12" d="M763.42,706.46c-4.76,2.75-12.76-2.19-17.87-11a28.19,28.19,0,0,1-4-12.62c-3.1,3.75-2.34,11.93,2.14,19.7,5.11,8.84,13.11,13.79,17.87,11,2.42-1.4,3.53-4.51,3.38-8.38A5.58,5.58,0,0,1,763.42,706.46Z"/></g></svg>