<svg id="Vector" xmlns="http://www.w3.org/2000/svg" viewBox="0 0 1723.63 1720.49"><defs><style>.cls-1{fill:#fff;stroke:#fff;stroke-miterlimit:10;stroke-width:31px;}</style></defs><path class="cls-1" d="M332.37,395.11a13.67,13.67,0,0,1,10.87,2.41,22.3,22.3,0,0,1,6,6.54L479.87,613.3q6.6,9.78.2,19.12-6,8.79-17.92,6.68L223,593.27q-7.28-1.75-11.11-4.4-5.49-3.78-6.3-9.37t3.35-11.64q6.6-9.6,17.56-7.34L439.8,605.18,322.23,421.06q-3.63-5.31-3.34-9.56a18.87,18.87,0,0,1,3.69-9.18Q326.72,396.28,332.37,395.11Z" transform="translate(-100.44 -100.24)"/><path class="cls-1" d="M565.7,519.82a16.74,16.74,0,0,1-11.07-7.37L427.73,326.12a16.56,16.56,0,0,1-2.9-13.13,17,17,0,0,1,7.46-10.93l124.4-84.73q6.33-4.31,12.72-3.22a15.73,15.73,0,0,1,10.51,7.15,14.76,14.76,0,0,1,2.52,12q-1.43,6.21-7.75,10.52l-110.09,75,45.55,66.88,79-53.8a17.16,17.16,0,0,1,12.58-3.13,16.09,16.09,0,0,1,12.93,19,17.17,17.17,0,0,1-7.52,10.56l-79,53.8L575,480.85l110.09-75q6.33-4.31,12.62-3.35A14.78,14.78,0,0,1,708,409.24a15.69,15.69,0,0,1,2.8,12.4q-1.34,6.33-7.66,10.65L578.69,517A16.76,16.76,0,0,1,565.7,519.82Z" transform="translate(-100.44 -100.24)"/><path class="cls-1" d="M790.25,388a126.94,126.94,0,0,1-55.59-37.41q-23.05-26.37-30.85-62.51-7.71-35.81,2.47-69.17a128.49,128.49,0,0,1,35.23-57q25.05-23.62,59.89-31.13,24.72-5.34,44.2-2.72t41.26,13.59a15.75,15.75,0,0,1,6.5,4.9,19.34,19.34,0,0,1,2.89,7,14.12,14.12,0,0,1-2.41,11.76,16.17,16.17,0,0,1-10,6.58,18.1,18.1,0,0,1-12.31-1.77q-15.81-8.52-29.58-10.83t-34,2a88.19,88.19,0,0,0-43.83,23.41,98.72,98.72,0,0,0-26,43.6,108.62,108.62,0,0,0,21.58,100.09,98.92,98.92,0,0,0,41.64,28.84,88.34,88.34,0,0,0,49.59,3.28q31.24-6.75,55.26-34.4,4.69-5.1,9.9-6.22a13.72,13.72,0,0,1,11.21,2.18c3.34,2.34,5.53,5.91,6.56,10.68A16.88,16.88,0,0,1,931.25,346q-29,35.91-73.64,45.52Q822.77,399,790.25,388Z" transform="translate(-100.44 -100.24)"/><path class="cls-1" d="M1192.83,150.59a16,16,0,0,1-15.71,25.3l-70.69-11.39-33.52,208.11a17.32,17.32,0,1,1-34.19-5.51L1072.24,159l-71-11.44a16,16,0,1,1,5.08-31.56l175.89,28.33A15.6,15.6,0,0,1,1192.83,150.59Z" transform="translate(-100.44 -100.24)"/><path class="cls-1" d="M1210.1,416.4a118.76,118.76,0,0,1-15.35-64.85q1.57-34.69,21.64-67.7t50-50.27a119.18,119.18,0,0,1,64.54-16.13q34.57,1.13,67.59,21.18,32.71,19.89,49.67,50a120.33,120.33,0,0,1,15.58,64.79q-1.37,34.64-21.41,67.65t-50.24,50.33a120.32,120.32,0,0,1-64.63,16.27q-34.43-1.05-67.44-21.1T1210.1,416.4Zm116.75,38.38a94.56,94.56,0,0,0,49.28-13.13q22.9-13.35,37.78-37.83t16.15-51a93.65,93.65,0,0,0-11-49.54q-12.3-23.06-36.77-37.92t-50.61-15.15a93.75,93.75,0,0,0-49,13.07q-22.92,13.35-37.78,37.83t-16.15,51a94.54,94.54,0,0,0,11.06,49.77q12.36,23.28,36.55,38T1326.85,454.78Z" transform="translate(-100.44 -100.24)"/><path class="cls-1" d="M1503.86,694.4a15.17,15.17,0,0,1-11.68,2.86q-6.27-1-10.74-7.25a16.81,16.81,0,0,1-2-17l41.2-100.16-3.5-4.86-24.88-34.61-67.33,48.39a17,17,0,0,1-12.82,3.27,17.4,17.4,0,0,1-7.39-31.39l183.06-131.58a16.56,16.56,0,0,1,13-3.23A17,17,0,0,1,1612,426l35,48.67q14.38,20,17.37,41.86a74.76,74.76,0,0,1-5.84,41.51q-8.84,19.68-28.29,33.67-19.2,13.8-41.07,14.75a75,75,0,0,1-41.49-10.36l-36.78,89.18A20.6,20.6,0,0,1,1503.86,694.4Zm39.25-145.09q13.22,18.38,32.18,22.8t35.45-7.44q17.85-12.82,20.65-32.89T1621,493.33l-24.88-34.61-77.87,56Z" transform="translate(-100.44 -100.24)"/><path class="cls-1" d="M1805.15,1058.05q-3.78,3.56-10.43,4a31.71,31.71,0,0,1-9.39-.76l-225.8-53.14a23.75,23.75,0,0,1-10.56-6.19,15.64,15.64,0,0,1-4.47-10.23,16.28,16.28,0,0,1,3.17-10.87,21,21,0,0,1,9.39-7.26l188.39-61.32-194.2-38.41a23.83,23.83,0,0,1-10.56-6.18,15.74,15.74,0,0,1-4.47-10.24,16.78,16.78,0,0,1,3-10.86,19.92,19.92,0,0,1,9.56-7.26l217.91-80.5a30.44,30.44,0,0,1,8.89-1.88q7-.43,11.2,3.15t4.64,10.22a17.21,17.21,0,0,1-2.68,10.68,18.54,18.54,0,0,1-9.24,7.07l-186.09,66.19L1784,892.87a14.74,14.74,0,0,1,8.68,5.47,17.93,17.93,0,0,1,4,10.43,18.75,18.75,0,0,1-2.36,10.49,13.44,13.44,0,0,1-7.94,6.49l-186,62.52,195.84,43.31q6.09,1.29,9,5.28t3.35,11Q1808.94,1054.47,1805.15,1058.05Z" transform="translate(-100.44 -100.24)"/><path class="cls-1" d="M1539.05,1082.91a16.73,16.73,0,0,1,13.28-.61l212.58,75a16.62,16.62,0,0,1,10.12,8.87,17.09,17.09,0,0,1,.45,13.22l-50.1,141.94q-2.55,7.22-8.34,10.12a15.72,15.72,0,0,1-12.7.46,14.75,14.75,0,0,1-9.13-8.17q-2.54-5.83,0-13.06l44.34-125.6-76.31-26.94-31.81,90.13a17.12,17.12,0,0,1-8.28,10,16.08,16.08,0,0,1-21.67-7.65,17.15,17.15,0,0,1-.19-13l31.81-90.12-78.5-27.71-44.34,125.61q-2.55,7.21-8.19,10.17a14.72,14.72,0,0,1-12.22.63q-6.91-2.45-9.6-8.33t-.14-13.12l50.11-141.93A16.69,16.69,0,0,1,1539.05,1082.91Z" transform="translate(-100.44 -100.24)"/><path class="cls-1" d="M1443.81,1299.73a17.08,17.08,0,0,1,12.41,4.6l168.2,150.11a16.72,16.72,0,0,1,5.86,11.94,16.32,16.32,0,0,1-4.25,12.26,17.05,17.05,0,0,1-24.45,1.39L1446.3,1341.46,1366,1431.39a17.32,17.32,0,1,1-25.84-23.06L1432,1305.48A16.21,16.21,0,0,1,1443.81,1299.73Z" transform="translate(-100.44 -100.24)"/><path class="cls-1" d="M1287.28,1452.65a17,17,0,0,1,9.9,8.78l102.31,200.89a16.8,16.8,0,0,1,1.14,13.25,16.36,16.36,0,0,1-8.42,9.89,17.07,17.07,0,0,1-23.29-7.57l-94.45-185.46-107.41,54.7a17.31,17.31,0,1,1-15.72-30.85l122.85-62.57A16.15,16.15,0,0,1,1287.28,1452.65Z" transform="translate(-100.44 -100.24)"/><path class="cls-1" d="M1017.55,1551.05a16.66,16.66,0,0,1,4.38,12.55l-11.14,225.17a16.61,16.61,0,0,1-5.6,12.22,17.07,17.07,0,0,1-12.55,4.22l-150.33-7.44q-7.65-.39-12.08-5.1a15.69,15.69,0,0,1-4.08-12,14.72,14.72,0,0,1,5.22-11.08q4.88-4.1,12.52-3.71l133,6.58,4-80.82-95.46-4.72a17.22,17.22,0,0,1-11.92-5.09,16.09,16.09,0,0,1,1.14-23,17.14,17.14,0,0,1,12.36-3.89l95.46,4.72,4.83-97.78a17.42,17.42,0,0,1,30.21-10.84Z" transform="translate(-100.44 -100.24)"/><path class="cls-1" d="M779.27,1532.3a118.81,118.81,0,0,1,23.33,62.43q2.76,34.61-13,69.87t-43.36,56.12a119.12,119.12,0,0,1-62,24q-34.44,3.2-69.7-12.58-34.95-15.64-55.53-43.45a120.23,120.23,0,0,1-23.54-62.34q-3-34.53,12.8-69.79t43.57-56.2a120.33,120.33,0,0,1,62.09-24.21q34.29-3.26,69.55,12.52T779.27,1532.3Zm-120.63-23.51A94.54,94.54,0,0,0,611.39,1528q-21.06,16.11-32.76,42.25T569,1622.8a93.76,93.76,0,0,0,17.11,47.78q15.07,21.33,41.22,33t52.09,8.72a93.81,93.81,0,0,0,47-19.09q21.08-16.11,32.77-42.25t9.66-52.59a94.46,94.46,0,0,0-17.19-48q-15.15-21.56-41-33.12T658.64,1508.79Z" transform="translate(-100.44 -100.24)"/><path class="cls-1" d="M453.71,1292.59a15.12,15.12,0,0,1,11.25-4.24q6.36.27,11.54,5.91a16.8,16.8,0,0,1,4,16.66L451.6,1415.29l4.06,4.41,28.84,31.38,61-56.11a17.1,17.1,0,0,1,12.34-4.78,17.4,17.4,0,0,1,11.1,30.28L403,1573a16.59,16.59,0,0,1-12.57,4.77,17,17,0,0,1-11.9-5.8L338,1527.87q-16.68-18.13-22.26-39.47a74.85,74.85,0,0,1,.82-41.92q6.42-20.58,24.06-36.81,17.41-16,39-19.57a74.93,74.93,0,0,1,42.43,5.33l25.83-93A20.5,20.5,0,0,1,453.71,1292.59Zm-21.59,148.75q-15.31-16.68-34.67-18.79t-34.31,11.64q-16.18,14.86-16.57,35.12t14.95,36.93l28.84,31.38,70.61-64.9Z" transform="translate(-100.44 -100.24)"/><path class="cls-1" d="M415.88,1208.25a126.76,126.76,0,0,1-29.35,60.23q-22.92,26.49-57.62,39.21-34.4,12.61-68.85,7.15a128.54,128.54,0,0,1-61.32-27q-26.87-21.54-39.13-55-8.72-23.76-8.82-43.41t7.75-42.74a15.68,15.68,0,0,1,4-7.12,19.28,19.28,0,0,1,6.57-3.83,14.14,14.14,0,0,1,12,.75,16.22,16.22,0,0,1,7.91,9,18.07,18.07,0,0,1-.06,12.43q-6.24,16.83-6.62,30.8t6.73,33.35a88.38,88.38,0,0,0,29.26,40.17A98.73,98.73,0,0,0,265,1282a108.62,108.62,0,0,0,96.15-35.24A99,99,0,0,0,384,1201.5a88.22,88.22,0,0,0-3.62-49.56q-11-30-41.73-50c-3.79-2.62-6.31-5.6-7.53-8.94a13.7,13.7,0,0,1,.61-11.4q2.79-5.45,9.67-8a16.9,16.9,0,0,1,13.4.76q39.59,23.8,55.28,66.63Q422.32,1174.51,415.88,1208.25Z" transform="translate(-100.44 -100.24)"/><path class="cls-1" d="M369.85,1003.66a16.76,16.76,0,0,1-12.6,4.24l-225-13.58a16.59,16.59,0,0,1-12.16-5.73A17.08,17.08,0,0,1,116,976L125,825.75q.46-7.63,5.23-12a15.71,15.71,0,0,1,12.08-4,14.77,14.77,0,0,1,11,5.34q4,4.92,3.58,12.56l-8,133,80.78,4.87,5.75-95.4a17.13,17.13,0,0,1,5.22-11.86,16.09,16.09,0,0,1,22.94,1.38A17.23,17.23,0,0,1,267.37,872l-5.75,95.4,83.09,5,8-133q.45-7.63,5.06-12a14.77,14.77,0,0,1,11.58-4,15.64,15.64,0,0,1,11.52,5.37q4.2,4.92,3.75,12.57l-9.07,150.24A16.71,16.71,0,0,1,369.85,1003.66Z" transform="translate(-100.44 -100.24)"/></svg>